<svg data-testid="items-icon" width="24" height="24" viewBox="0 0 24 24" role="img" style="fill: currentColor;" aria-hidden="false" aria-label="Items &amp; services" class="" xmlns="http://www.w3.org/2000/svg"><path d="M13.9999 7.87871C14.5857 7.29293 15.5352 7.29293 16.121 7.87871C16.7068 8.4645 16.7068 9.41402 16.121 9.99981C15.5352 10.5855 14.5857 10.5856 13.9999 9.99981C13.4142 9.41405 13.4142 8.46451 13.9999 7.87871Z" fill="rgb(16, 16, 16)" stroke-width="1px" fill-opacity="1" stroke-opacity="1"></path> <path fill-rule="evenodd" clip-rule="evenodd" d="M12.1318 2.0086L20.1318 3.0711L20.2958 3.10723C20.6658 3.22162 20.9424 3.54401 20.9921 3.93828L21.9921 11.8748C22.0313 12.1856 21.9224 12.4969 21.6982 12.7156L11.9628 22.2156C11.571 22.5978 10.9446 22.5939 10.5576 22.2068L1.7929 13.4422C1.40581 13.0551 1.4019 12.4288 1.78412 12.0369L11.2841 2.30156C11.5045 2.07568 11.8189 1.96702 12.1318 2.0086ZM3.90521 12.7264L11.2724 20.0936L19.9452 11.6307L19.1035 4.95196L12.3652 4.05645L3.90521 12.7264Z" fill="rgb(16, 16, 16)" stroke-width="1px" fill-opacity="1" stroke-opacity="1"></path></svg>