<svg data-testid="orders-icon" width="24" height="24" viewBox="0 0 24 24" role="img" style="fill: currentColor;" aria-hidden="false" aria-label="Invoices &amp; payments" class="" xmlns="http://www.w3.org/2000/svg"><path d="M6.99976 3.99981H5.99976V19.9998H6.99976V21.9998H4.99976C4.44758 21.9997 3.99976 21.552 3.99976 20.9998V2.99981C3.99985 2.73474 4.1053 2.48023 4.29272 2.29278C4.4802 2.10536 4.73467 1.99987 4.99976 1.99981H6.99976V3.99981Z" fill="rgb(16, 16, 16)" stroke-width="1px" fill-opacity="1" stroke-opacity="1"></path> <path d="M10.9998 21.9998H8.99976V19.9998H10.9998V21.9998Z" fill="rgb(16, 16, 16)" stroke-width="1px" fill-opacity="1" stroke-opacity="1"></path> <path d="M14.9998 21.9998H12.9998V19.9998H14.9998V21.9998Z" fill="rgb(16, 16, 16)" stroke-width="1px" fill-opacity="1" stroke-opacity="1"></path> <path d="M18.9998 1.99981C19.2649 1.99981 19.5193 2.10538 19.7068 2.29278C19.8943 2.48028 19.9997 2.73464 19.9998 2.99981V20.9998C19.9998 21.5521 19.552 21.9998 18.9998 21.9998H16.9998V19.9998H17.9998V3.99981H16.9998V1.99981H18.9998Z" fill="rgb(16, 16, 16)" stroke-width="1px" fill-opacity="1" stroke-opacity="1"></path> <path d="M15.9998 14.9998H7.99976V12.9998H15.9998V14.9998Z" fill="rgb(16, 16, 16)" stroke-width="1px" fill-opacity="1" stroke-opacity="1"></path> <path d="M15.9998 10.9998H7.99976V8.99981H15.9998V10.9998Z" fill="rgb(16, 16, 16)" stroke-width="1px" fill-opacity="1" stroke-opacity="1"></path> <path d="M10.9998 3.99981H8.99976V1.99981H10.9998V3.99981Z" fill="rgb(16, 16, 16)" stroke-width="1px" fill-opacity="1" stroke-opacity="1"></path> <path d="M14.9998 3.99981H12.9998V1.99981H14.9998V3.99981Z" fill="rgb(16, 16, 16)" stroke-width="1px" fill-opacity="1" stroke-opacity="1"></path></svg>