<svg data-testid="search-icon" width="24" height="24" viewBox="0 0 24 24" role="img" style="fill: #101010;" aria-hidden="true" aria-label="Search" class="" xmlns="http://www.w3.org/2000/svg"><path fill-rule="evenodd" clip-rule="evenodd" d="M5.11531 5.11531C7.93575 2.29488 12.5087 2.29491 15.3292 5.11531C17.9096 7.69576 18.1267 11.7413 15.9854 14.5714L21.2071 19.793L19.793 21.2071L14.5714 15.9854C11.7413 18.1267 7.69576 17.9096 5.11531 15.3292C2.29491 12.5087 2.29488 7.93575 5.11531 5.11531ZM13.9151 6.52938C11.8757 4.49002 8.56876 4.48999 6.52938 6.52938C4.48999 8.56876 4.49002 11.8757 6.52938 13.9151C8.56878 15.9545 11.8757 15.9545 13.9151 13.9151C15.9545 11.8757 15.9545 8.56878 13.9151 6.52938Z" fill="rgb(16, 16, 16)" stroke-width="1px" fill-opacity="1" stroke-opacity="1"></path></svg>